<svg xmlns="http://www.w3.org/2000/svg" viewBox="0 0 792.56 830"><defs><style>.cls-1{fill:#dcfff8;}.cls-2{fill:#98f7e5;}.cls-3{fill:#fff;}.cls-4{fill:#00a0ba;}</style></defs><title>activity-log-icon</title><g id="Color"><circle class="cls-1" cx="397.48" cy="421.31" r="380.56"/><path class="cls-2" d="M258,177.28H184.2a7.66,7.66,0,0,0-7.65,7.65v44.46a283.55,283.55,0,0,1,89.08,0V184.93A7.65,7.65,0,0,0,258,177.28Z"/><path class="cls-3" d="M424.32,272.85l-20.61,20.6q8.09,7,15.71,14.57t14.39,15.52l20.6-20.6Z"/><path class="cls-2" d="M482.94,314.71A13.94,13.94,0,1,0,502.66,295l-72.89-72.89a13.94,13.94,0,1,0-19.72,19.71Z"/><path class="cls-2" d="M410.52,316.92a267.89,267.89,0,0,0-378.85,0Q25,323.6,18.86,330.65A390.33,390.33,0,0,0,8.23,418.41,230.31,230.31,0,0,1,384,343.48c89.8,89.81,89.8,235.93,0,325.74a228.84,228.84,0,0,1-162.87,67.46,231.22,231.22,0,0,1-64.48-9.12A390,390,0,0,0,231.55,774a266,266,0,0,0,179-78.24C515,591.33,515,421.37,410.52,316.92Z"/><path class="cls-3" d="M375.06,660.32c84.89-84.9,84.89-223,0-307.93A217.67,217.67,0,0,0,9.61,454.74a388.65,388.65,0,0,0,119.76,249.2,218.13,218.13,0,0,0,245.69-43.62ZM422.76,504a3.94,3.94,0,0,1-3.94,3.94H364.89a3.94,3.94,0,0,1,0-7.87h53.93A3.94,3.94,0,0,1,422.76,504Zm-79.1-75.3,46.7-27a3.94,3.94,0,1,1,3.94,6.82l-46.7,27a3.93,3.93,0,1,1-3.94-6.81ZM342.22,574a3.94,3.94,0,0,1,5.38-1.44l46.7,27a3.93,3.93,0,1,1-3.94,6.81l-46.7-27A3.94,3.94,0,0,1,342.22,574ZM289.59,377.54l27-46.7a3.93,3.93,0,0,1,6.81,3.93l-27,46.7a3.92,3.92,0,0,1-3.41,2,3.88,3.88,0,0,1-2-.53A3.93,3.93,0,0,1,289.59,377.54ZM189.19,506.35a32,32,0,0,1,25.61-31.27V359.16a6.23,6.23,0,0,1,2.36-4.87v-48a3.94,3.94,0,0,1,7.87,0v48a6.26,6.26,0,0,1,2.36,4.87V475.08a31.89,31.89,0,0,1,20.11,49.15L364.12,642.84a6.3,6.3,0,0,1-9,8.83L238.51,533a31.86,31.86,0,0,1-49.32-26.69Z"/><path class="cls-2" d="M225,354.29v-48a3.94,3.94,0,0,0-7.87,0v48a6.16,6.16,0,0,1,7.87,0Z"/><path class="cls-2" d="M343.66,579.35l46.7,27a3.93,3.93,0,1,0,3.94-6.81l-46.7-27a3.93,3.93,0,1,0-3.94,6.81Z"/><path class="cls-2" d="M361,504a3.93,3.93,0,0,0,3.93,3.94h53.93a3.94,3.94,0,1,0,0-7.87H364.89A3.93,3.93,0,0,0,361,504Z"/><path class="cls-2" d="M345.63,436.08a3.91,3.91,0,0,0,2-.53l46.7-27a3.94,3.94,0,1,0-3.94-6.82l-46.7,27a3.93,3.93,0,0,0,2,7.34Z"/><path class="cls-2" d="M291,382.91a3.88,3.88,0,0,0,2,.53,3.92,3.92,0,0,0,3.41-2l27-46.7a3.93,3.93,0,0,0-6.81-3.93l-27,46.7A3.93,3.93,0,0,0,291,382.91Z"/><path class="cls-2" d="M220.35,485.3a19.31,19.31,0,1,0,19.31,19.31A19.33,19.33,0,0,0,220.35,485.3Z"/><path class="cls-2" d="M761.69,415.7h-239a3.93,3.93,0,1,0,0,7.86h239a3.93,3.93,0,1,0,0-7.86Z"/><path class="cls-2" d="M706.3,465.6H522.68a3.93,3.93,0,1,0,0,7.86H706.3a3.93,3.93,0,1,0,0-7.86Z"/><path class="cls-2" d="M630.78,522.23H522.68a3.94,3.94,0,0,0,0,7.87h108.1a3.94,3.94,0,0,0,0-7.87Z"/></g><g id="Stroke"><path class="cls-4" d="M176,228.73V184.44a7.63,7.63,0,0,1,7.62-7.62h73.5a7.63,7.63,0,0,1,7.62,7.62v44.29q6.3,1,12.54,2.28V184.44a20.18,20.18,0,0,0-20.16-20.16H183.6a20.18,20.18,0,0,0-20.16,20.16V231Q169.68,229.72,176,228.73Z"/><path class="cls-4" d="M452.76,302l-20.51,20.52c2.75,3.2,5.4,6.45,8,9.74l21.39-21.39Z"/><path class="cls-4" d="M402.26,292.54,422.79,272l-8.87-8.86-21.39,21.39Q397.47,288.42,402.26,292.54Z"/><path class="cls-4" d="M422.79,272l30,30,8.87,8.87,12.54,12.54A26.42,26.42,0,0,0,511.54,286l-72.61-72.61a26.42,26.42,0,0,0-37.37,37.37l12.36,12.36Zm-12.36-49.72a13.88,13.88,0,0,1,19.64,0l72.6,72.61A13.88,13.88,0,1,1,483,314.53l-72.61-72.6A13.91,13.91,0,0,1,410.43,222.29Z"/><path class="cls-4" d="M440.24,332.25c-2.59-3.29-5.24-6.54-8-9.74q-6.83-7.93-14.34-15.46t-15.65-14.51q-4.78-4.12-9.73-8A276.28,276.28,0,0,0,277.26,231q-6.24-1.29-12.54-2.28a282.2,282.2,0,0,0-88.74,0q-6.3,1-12.54,2.28A277.17,277.17,0,0,0,26,304q-4,12.63-7,25.62,6.12-7,12.76-13.68a266.84,266.84,0,0,1,377.38,0C513.09,420,513.09,589.26,409,693.3a264.88,264.88,0,0,1-178.28,77.94q12.08,5.71,24.56,10.6a277.29,277.29,0,0,0,162.59-79.67C518.8,601.28,526.23,441.79,440.24,332.25Z"/><path class="cls-4" d="M382.58,666.85c89.46-89.46,89.46-235,0-324.47A229.42,229.42,0,0,0,8.31,417c0,1,0,2.06,0,3.09,0,11.15.5,22.19,1.42,33.1a216.86,216.86,0,0,1,364-102c84.57,84.57,84.57,222.17,0,306.74A217.28,217.28,0,0,1,129,701.44q13,12.38,27.14,23.52A230.23,230.23,0,0,0,220.35,734,227.93,227.93,0,0,0,382.58,666.85Z"/><path class="cls-4" d="M226.62,473.46V358a6.27,6.27,0,0,0-12.54,0V473.46a32,32,0,0,1,12.54,0Z"/><path class="cls-4" d="M237.7,531.2,353.88,649.36a6.27,6.27,0,1,0,8.94-8.79L246.65,522.42A32,32,0,0,1,237.7,531.2Z"/><path class="cls-4" d="M237.7,531.2a32,32,0,0,0,9-8.78,31.75,31.75,0,0,0-20-49,32,32,0,0,0-12.54,0A31.77,31.77,0,1,0,237.7,531.2Zm-17.35-7.35a19.24,19.24,0,1,1,19.24-19.24A19.26,19.26,0,0,1,220.35,523.85Z"/><path class="cls-4" d="M498.57,53.27a7.63,7.63,0,0,1-2.06-.28,379.88,379.88,0,0,0-39.43-8.48A7.84,7.84,0,0,1,459.56,29a397.78,397.78,0,0,1,41.06,8.84,7.84,7.84,0,0,1-2.05,15.4Z"/><path class="cls-4" d="M396.5,816.16A396.06,396.06,0,0,1,116.44,140,393.49,393.49,0,0,1,396.5,24a7.84,7.84,0,0,1,0,15.67,380.39,380.39,0,0,0-269,649.36,380.42,380.42,0,0,0,592-469.91A381.85,381.85,0,0,0,570.09,81.54a7.84,7.84,0,0,1,7.17-13.94,396.07,396.07,0,0,1,215.3,352.5A396.07,396.07,0,0,1,396.5,816.16Z"/><path class="cls-4" d="M546.63,57.59a10,10,0,1,1-10-10A10,10,0,0,1,546.63,57.59Z"/></g></svg>