<svg xmlns="http://www.w3.org/2000/svg" viewBox="0 0 792.56 830"><defs><style>.cls-1{fill:#00a0ba;}.cls-2{fill:#dcfff8;}.cls-3{fill:#fccac3;}</style></defs><title>placeholder-feature-icon</title><g id="Stroke"><path class="cls-1" d="M728.06,232.89a7.42,7.42,0,0,1-1.26-1.66,378.81,378.81,0,0,0-21.88-33.87,7.83,7.83,0,1,1,12.69-9.19,393.49,393.49,0,0,1,22.79,35.28,7.84,7.84,0,0,1-12.34,9.44Z"/><path class="cls-1" d="M116.44,700.16A396.06,396.06,0,0,1,676.55,140a7.84,7.84,0,0,1-11.08,11.09A380.38,380.38,0,1,0,127.52,689.07,380.47,380.47,0,0,0,767,506.44a381.77,381.77,0,0,0-8.37-203,7.84,7.84,0,0,1,14.93-4.8,396.09,396.09,0,0,1-97,401.5,396.06,396.06,0,0,1-560.11,0Z"/><path class="cls-1" d="M759,269.93a10,10,0,1,1,0-14.11A10,10,0,0,1,759,269.93Z"/><circle class="cls-2" cx="396.33" cy="421.65" r="380.56"/></g><g id="Color"><path class="cls-3" d="M398.42,623.27c-22.22,0-41-18.77-41-41s18.76-41,41-41,41,18.76,41,41S420.63,623.27,398.42,623.27ZM372,490.73c-9.55-12.22-14.57-27.34-14.57-44,0-36.76,24.61-54.58,48.42-71.81l2.05-1.48c19.91-14.13,38.71-27.47,38.71-50.09,0-20.94-14.75-43.32-56.15-43.32-28,0-53.82,11.59-75.09,33.63l-38.11-42.81C307.78,238.45,351.94,220,399.64,220c72,0,118.55,34.55,118.55,88,0,44.76-26.28,66.46-58,88.28l-.26.18-1.68,1.25c-21.63,16.05-42.06,31.22-42.06,57.49a45.9,45.9,0,0,0,5.41,20.93Z"/><path class="cls-1" d="M399.64,228.53c34.38,0,63,8.09,82.64,23.38,17.93,13.93,27.41,33.34,27.41,56.13,0,19.07-5.16,34.51-16.22,48.59-10.23,13-24.44,23.29-38.11,32.69l-.25.17-.25.19-1.69,1.25c-22.36,16.59-45.49,33.76-45.49,64.31a51.92,51.92,0,0,0,2.44,15.44l-34.71,10.19c-6.29-9.82-9.47-21.27-9.47-34.18,0-32.42,21.81-48.21,44.9-64.92l1.75-1.27.24-.17c20.79-14.75,42.29-30,42.29-57,0-23.9-16.93-51.82-64.65-51.82-27.13,0-53.06,10.49-74.61,29.89l-26.92-30.25c28.6-27.23,68.14-42.6,110.7-42.6m-1.22,321.28a33.09,33.09,0,1,1-22.8,9.69,32.13,32.13,0,0,1,22.8-9.69m1.22-338.28c-52.53,0-101.4,21.38-133.77,59.25l49.48,55.59c18.93-22.6,44.59-37.88,75.12-37.88,33.6,0,47.65,15.88,47.65,34.82,0,18.33-16.49,29.93-35.43,43.37-24.43,17.71-53.75,37.87-53.75,80,0,21.38,7.33,39.7,20.16,53.75l66.57-19.54c-6.1-5.5-11-15.88-11-25.66,0-22.6,18.94-36,40.31-51.92,29.32-20.15,61.7-44.58,61.7-95.28,0-56.8-48.26-96.51-127.05-96.51Zm-1.22,321.28c-26.88,0-49.48,22.61-49.48,49.48s22.6,49.48,49.48,49.48,49.47-22.6,49.47-49.48-22.6-49.48-49.47-49.48Z"/></g></svg>