<svg xmlns="http://www.w3.org/2000/svg" viewBox="0 0 792.56 830"><defs><style>.cls-1{fill:#dcfff8;}.cls-2{fill:none;stroke:#fccac3;stroke-miterlimit:10;stroke-width:17px;}.cls-3{fill:#98f7e5;}.cls-4{fill:#00a0ba;}.cls-5{fill:#fff200;}.cls-6{fill:#ffe8ae;}</style></defs><title>reflection-log-icon</title><g id="Color"><circle class="cls-1" cx="396.33" cy="421.65" r="380.56"/><polyline class="cls-2" points="52.2 583.09 135.19 500.1 225.73 590.64 593.37 223.01 645.36 274.99 708.51 211.84"/><path class="cls-3" d="M444.19,590.15H334.24a23.61,23.61,0,0,1-23.6-23.6h0a23.61,23.61,0,0,1,23.6-23.6h110a23.61,23.61,0,0,1,23.6,23.6h0A23.61,23.61,0,0,1,444.19,590.15Z"/><path class="cls-4" d="M444.19,599.59H334.24a33,33,0,0,1,0-66.08h110a33,33,0,1,1,0,66.08Zm-109.95-47.2a14.16,14.16,0,1,0,0,28.32h110a14.16,14.16,0,0,0,0-28.32Z"/><path class="cls-3" d="M444.19,637.35H334.24a23.61,23.61,0,0,1-23.6-23.6h0a23.6,23.6,0,0,1,23.6-23.6h110a23.6,23.6,0,0,1,23.6,23.6h0A23.61,23.61,0,0,1,444.19,637.35Z"/><path class="cls-4" d="M444.19,646.79H334.24a33,33,0,0,1,0-66.08h110a33,33,0,1,1,0,66.08Zm-109.95-47.2a14.16,14.16,0,0,0,0,28.32h110a14.16,14.16,0,1,0,0-28.32Z"/><path class="cls-3" d="M444.19,684.54H334.24A23.6,23.6,0,0,1,310.64,661h0a23.6,23.6,0,0,1,23.6-23.6h110a23.6,23.6,0,0,1,23.6,23.6h0A23.6,23.6,0,0,1,444.19,684.54Z"/><path class="cls-4" d="M444.19,694H334.24a33,33,0,0,1,0-66.08h110a33,33,0,1,1,0,66.08Zm-109.95-47.2a14.16,14.16,0,1,0,0,28.32h110a14.16,14.16,0,0,0,0-28.32Z"/><path class="cls-1" d="M389.21,731.74h0a61.16,61.16,0,0,1-57.8-41.18l-2.08-6H449.1l-2.08,6A61.16,61.16,0,0,1,389.21,731.74Z"/><path class="cls-4" d="M389.22,741.18a70.62,70.62,0,0,1-66.73-47.54l-2.08-6a9.43,9.43,0,0,1,8.92-12.52H449.1A9.43,9.43,0,0,1,458,687.63l-2.08,6A70.63,70.63,0,0,1,389.22,741.18ZM343.09,694a51.73,51.73,0,0,0,92.25,0Z"/><path class="cls-5" d="M557.36,314.16A168.15,168.15,0,0,0,386.82,146c-92.48,1.29-167.12,78.22-165.73,170.7a167.61,167.61,0,0,0,52.33,119.34c29.25,27.79,46.47,65.89,46.47,106.22V543H458.54v-.67a145.45,145.45,0,0,1,46-105.76,167.67,167.67,0,0,0,52.82-122.36"/><path class="cls-4" d="M566.8,314.16A175.88,175.88,0,0,1,511,443.38a136.65,136.65,0,0,0-43,98.9V543a9.44,9.44,0,0,1-9.44,9.44H319.89a9.44,9.44,0,0,1-9.44-9.44v-.66c0-36.87-15.86-73.09-43.53-99.37A177.58,177.58,0,1,1,566.8,314.16"/><path class="cls-6" d="M547.92,314.16a158.7,158.7,0,1,0-268,115.07c29.21,27.75,46.83,65.35,49.15,104.28H449.35a155.93,155.93,0,0,1,48.71-103.86,157.24,157.24,0,0,0,49.86-115.49"/><circle class="cls-6" cx="348.26" cy="401.24" r="22.66"/><path class="cls-4" d="M348.26,433.33a32.1,32.1,0,1,1,32.1-32.09A32.13,32.13,0,0,1,348.26,433.33Zm0-45.31a13.22,13.22,0,1,0,13.22,13.22A13.23,13.23,0,0,0,348.26,388Z"/><rect class="cls-4" x="361.48" y="401.24" width="18.88" height="141.71"/><circle class="cls-6" cx="430.17" cy="401.24" r="22.66"/><path class="cls-4" d="M430.17,433.33a32.1,32.1,0,1,1,32.09-32.09A32.13,32.13,0,0,1,430.17,433.33Zm0-45.31a13.22,13.22,0,1,0,13.21,13.22A13.23,13.23,0,0,0,430.17,388Z"/><rect class="cls-4" x="398.07" y="401.24" width="18.88" height="141.71"/></g><g id="Stroke"><path class="cls-4" d="M728.06,232.89a7.42,7.42,0,0,1-1.26-1.66,378.81,378.81,0,0,0-21.88-33.87,7.83,7.83,0,1,1,12.69-9.19,393.49,393.49,0,0,1,22.79,35.28,7.84,7.84,0,0,1-12.34,9.44Z"/><path class="cls-4" d="M116.44,700.16A396.06,396.06,0,0,1,676.55,140a7.84,7.84,0,0,1-11.08,11.09A380.38,380.38,0,1,0,127.52,689.07,380.47,380.47,0,0,0,767,506.44a381.77,381.77,0,0,0-8.37-203,7.84,7.84,0,0,1,14.93-4.8,396.09,396.09,0,0,1-97,401.5,396.06,396.06,0,0,1-560.11,0Z"/><path class="cls-4" d="M759,269.93a10,10,0,1,1,0-14.11A10,10,0,0,1,759,269.93Z"/></g></svg>